<svg xmlns="http://www.w3.org/2000/svg" viewBox="0 0 318.51 579.29"><defs><style>.cls-1{fill:#727272;}</style></defs><g id="Calque_2" data-name="Calque 2"><g id="Background"><path class="cls-1" d="M18.53,142.88q-18.1-20-18.1-59.7Q.43,43.1,18.32,23.7T69.39,4.31H90.51q22.41.43,35.13-.22A130.74,130.74,0,0,0,151.71,0l-2.15,50A39.36,39.36,0,0,0,125,40.94V43.1q2.58.87,6.25,5.82t5.6,15.73q1.95,10.78,1.94,27.58,0,36.21-17.88,53.45T69,162.92Q36.64,162.92,18.53,142.88Zm-5.17,161Q1.28,290.92,1.29,267.22q0-13.8,4.1-23.27t9.48-14q5.39-4.53,9.27-5l13.36,2.16-.87.43q-3,.42-4.52,4.31T30.6,244.81q0,11.64,5.6,17.88t20.69,6.25a35.28,35.28,0,0,0,13.58-2.58,21.57,21.57,0,0,0,10.13-8.84,27.68,27.68,0,0,0,3.88-14.87q0-7.76-2.16-11.85t-8.62-5H72a76.59,76.59,0,0,0-13.36,1.3,85.68,85.68,0,0,1-10.13,1.29q-5.82.42-12.29.43-15.09,0-23.92-10.34T3.45,191.36q0-14.64,5.39-23.7T21.55,154.3A30.13,30.13,0,0,1,37.07,150l10.77,7.32a1.29,1.29,0,0,1-.43.87A12.24,12.24,0,0,0,44,162.7a18.32,18.32,0,0,0-1.29,7.54q0,6.47,1.72,8.84c1.15,1.58,3.3,2.37,6.47,2.37,3.45,0,6.82-.14,10.13-.43s6.53-.71,9.69-1.29q5.17-.87,10.35-1.51a90.72,90.72,0,0,1,11.2-.65q26.3,0,40.52,12.5T147,234.46q0,26.29-8.83,44.83t-24.57,28q-15.73,9.48-39.44,9.48H52.58Q25.43,316.78,13.36,303.85ZM77.15,116.37q2.58-9.48,2.59-27.58,0-17.24-2.37-27.37T69.82,51.29q-5.17,0-7.76,10.13T59.48,88.79q0,18.09,2.8,27.58t7.54,9.48Q74.56,125.85,77.15,116.37Z"/><path class="cls-1" d="M255.37,184.47q-4.53,19.4-14.44,30.6t-27.15,11.2q-28.89,0-41.6-26.07t-12.71-82.54q0-35.32,6.46-61.2t17.89-39.22Q195.24,3.89,208.17,3.88q21.12,0,31.9,16.59T256,68.1h3.88L259.46,103h-5.17q0-7.76-.86-17a45.85,45.85,0,0,0-4.74-16.8q-3.88-7.55-8.19-7.55-5.61,0-9.92,13.15t-4.31,42.88a62.74,62.74,0,0,0,.44,6.9q0,28.88,3.44,40.3t10.78,11.42q4.31,0,7.76-7.76A60.73,60.73,0,0,0,253.21,150q1.08-10.77,1.08-18.54l5.17,8.19Q259.88,165.08,255.37,184.47Zm61-136.2q-.87,25.44-.86,59.91V218.52q0,34.9-11,56.46t-28.45,30.81q-17.44,9.27-40.29,9.27a131,131,0,0,1-24.57-1.94q-9.91-1.94-24.14-5.82a37.15,37.15,0,0,0-9.26-2.15q-4.53-.43-8.41-.86l14.23-60.78.43.44q6,4.29,16.81,8.4a68.7,68.7,0,0,0,24.56,4.09q11.64,0,18.32-5.81t8.62-17.46q1.93-11.64,1.94-31.89V79.3L258.6,9.05h59.91Q317.22,22.85,316.35,48.27Z"/><path class="cls-1" d="M94.17,535.54Q88.35,556,77.58,567.22a35.11,35.11,0,0,1-26.29,11.21q-26.29,0-38.79-27.15T0,467.66q0-35.32,6.25-60.77t18.1-39.22q11.85-13.79,26.94-13.79a30.45,30.45,0,0,1,22.41,9.05q9.06,9,13.79,23.06a206.51,206.51,0,0,1,7.76,32.11H98.7L98.27,453H94.39a111.29,111.29,0,0,0-1.51-17.24A68.59,68.59,0,0,0,88.14,419q-3.24-7.32-5.82-7.33-6,0-11.2,13.79t-5.18,42.24q0,31.9,4.53,44.83t11.42,12.93q3.45,0,6.47-6.9a68,68,0,0,0,4.52-16.16,163.72,163.72,0,0,0,1.94-17.89,8,8,0,0,1-.43-2.58l5.6,6Q100,515.07,94.17,535.54Zm2.16,1.94q-1.52-24.12-1.51-56.89V444.82q0-53.43-.86-85.77h67.66q-2.16,11.22-3.66,37.07t-1.51,62.49v22q0,36.65,1.51,60.34t3.66,33.62H99.56Q97.84,561.62,96.33,537.48Z"/><path class="cls-1" d="M183.6,563.56q-9.91-15.73-9.91-45.47,0-36.21,12.28-50.64T214.64,453q12.06,0,30.17,6.46l1.72,26.29q-2.58-.86-6.68-1.93T231,481.67a37.15,37.15,0,0,0-7.75-1.08,7.57,7.57,0,0,0-5.61,2.16,19.46,19.46,0,0,0-3.88,6.25,28.85,28.85,0,0,0-1.72,11q0,10.33,4.09,16.38t11.86,6q4.31,0,8.4-7.54a61.3,61.3,0,0,0,6-17.24q1.94-9.71,3.23-16.16h9.91l3,32.75h-4.74a243.61,243.61,0,0,1-6.68,34.26q-4.11,14.46-11.86,22.63t-20.68,8.19Q193.51,579.29,183.6,563.56Zm69-16.59q-1.29-15.94-3.88-36.64l-4.3-37.93-.87-9q-2.16-19-4.74-29.31T232.09,419q-4.09-4.74-11.42-4.74a35.09,35.09,0,0,0-15.09,3.45,70,70,0,0,0-14.22,9.05l-2.58,3-8.62-58.18a86.72,86.72,0,0,0,9.05-3.88,110.75,110.75,0,0,1,22.62-9.91,89,89,0,0,1,26.94-3.88q27.15,0,41.38,22.63T300,445.68l6.9,65.08q3.45,26.73,6,42.89t4.74,20.9H254.29Q253.86,562.91,252.56,547Z"/></g></g></svg>