<svg xmlns="http://www.w3.org/2000/svg" viewBox="0 0 75.7 29.22"><defs><style>.cls-1{fill:#fff;fill-rule:evenodd;}</style></defs><g id="Calque_2" data-name="Calque 2"><g id="Background"><path class="cls-1" d="M23.67,23.85h-.83a.17.17,0,0,0-.13.07l-1.48,2.5c-.07.09-.13.09-.19,0l-1.44-2.5a.17.17,0,0,0-.14-.07h-.81a.17.17,0,0,0-.17.17v5a.17.17,0,0,0,.17.17h.81a.18.18,0,0,0,.17-.17h0V26.46c0-.16.16-.23.26-.1L21,28.2a.17.17,0,0,0,.27,0l1.15-1.84c.1-.13.26-.06.26.1v2.59a.17.17,0,0,0,.17.17h.82a.17.17,0,0,0,.17-.17V24a.17.17,0,0,0-.17-.17m5.78,3.27H28.37a.17.17,0,0,1-.15-.24l.54-1.44a.16.16,0,0,1,.2-.1.19.19,0,0,1,.1.1l.54,1.44a.18.18,0,0,1-.15.24Zm0-3.17a.16.16,0,0,0-.15-.1h-.84a.16.16,0,0,0-.15.1l-2.1,5a.17.17,0,0,0,.15.24h.84a.19.19,0,0,0,.16-.11l.31-.84a.16.16,0,0,1,.15-.11H30a.15.15,0,0,1,.15.11l.32.84a.16.16,0,0,0,.15.11h.83a.17.17,0,0,0,.15-.24ZM43.93,26.4a.16.16,0,0,1,0-.2l1.53-1.91a.16.16,0,0,0-.12-.27h-.85a.15.15,0,0,0-.12.07l-1.72,2.2a.16.16,0,0,1-.29-.1v-2A.17.17,0,0,0,42.2,24h-.76a.17.17,0,0,0-.16.17v4.86a.16.16,0,0,0,.16.17h.76a.16.16,0,0,0,.16-.17v-.84a.15.15,0,0,1,0-.11l.64-.8a.16.16,0,0,1,.22,0s0,0,0,0l1.25,1.84a.17.17,0,0,0,.13.07h.94a.16.16,0,0,0,.13-.26Zm8.87,1.82H50.3a.2.2,0,0,1-.19-.19h0v-.76a.19.19,0,0,1,.19-.19H52a.18.18,0,0,0,.19-.19h0v-.56a.18.18,0,0,0-.19-.19H50.3a.19.19,0,0,1-.19-.19h0v-.74A.2.2,0,0,1,50.3,25h2.32a.18.18,0,0,0,.19-.18h0v-.63a.19.19,0,0,0-.18-.19H49.16a.2.2,0,0,0-.19.19h0V29a.2.2,0,0,0,.19.19H52.8A.19.19,0,0,0,53,29V28.4a.19.19,0,0,0-.19-.18m6.06-4.37H55a.17.17,0,0,0-.15.17v.7a.17.17,0,0,0,.15.17h1.26a.15.15,0,0,1,.15.17v4a.17.17,0,0,0,.16.17h.73a.17.17,0,0,0,.15-.17v-4a.16.16,0,0,1,.15-.17h1.27a.17.17,0,0,0,.15-.17V24a.17.17,0,0,0-.15-.17M36.48,26.79c-.21,0-.41,0-.63,0a.17.17,0,0,1-.16-.17V25a.16.16,0,0,1,.17-.17h.58c.67,0,1.19.35,1.19.95s-.36.91-1.15,1m2.26-.93c0-1.17-.86-2-2.36-2l-1.64,0a.18.18,0,0,0-.17.17v5a.18.18,0,0,0,.17.17h.78a.17.17,0,0,0,.17-.17V28c0-.14,0-.17.17-.17h.72c.18,0,.23,0,.28.09l.6,1.21a.18.18,0,0,0,.15.1h.9a.17.17,0,0,0,.15-.25L38,27.57a.17.17,0,0,1,.05-.21,1.78,1.78,0,0,0,.72-1.5M70.41,9c1.36,0,.58,5.53-1.8,5.89a4.7,4.7,0,0,1-.17-1.24c0-1.81.67-4.65,2-4.65M36.58,17.49c-2.47,0-.74-8.48,1.25-8.48,1.32,0,1.11,8.48-1.25,8.48M28,9c1.42,0,.58,5.36-1.75,6.24A5.75,5.75,0,0,1,26,13.67C26,11.86,26.69,9,28,9m46.8,4.88c-.07.07-.71,3.93-3.47,3.93A2.7,2.7,0,0,1,69,16a5.39,5.39,0,0,0,4.51-5.22,2.67,2.67,0,0,0-2.8-2.88c-2.1,0-4.84,1.94-4.84,5.75a8,8,0,0,0,.06,1,3.12,3.12,0,0,1-1.79-1.27c.63-2.8.52-5.49-.79-5.49-.73,0-1.36,1-1.36,3a5.68,5.68,0,0,0,.66,2.58c-.27,1.28-1.19,4.39-2.37,4.39-1.62,0-1.12-7.64-1.12-8.77,0-.92-2.23-1.88-2.73-1.39a8.69,8.69,0,0,0-.25,3.06,22.7,22.7,0,0,0,.39,4.33c-.15.79-.82,2.8-2.06,2.8-1.93,0-1-7.23-1-8.39,0-.83-2.15-1.62-2.68-1.09-.2.2-.35,1.67-.35,3.94a20.33,20.33,0,0,0,.2,2.91c-.21,1-1,2.63-2.3,2.63-2.07,0-1.15-7.92-.61-12.81.35-.06.69-.11,1-.15.9-.1,2-.28,2,.27a1.49,1.49,0,0,0,1.49,1.68c.7,0,1.33-.54,1.33-1.59s-.9-2-2.51-2a19,19,0,0,0-3.19.3c.08-.82.14-1.47.14-1.86C48.13.7,45.88-.34,45.44.1a27.14,27.14,0,0,0-.65,4.16,24.14,24.14,0,0,1-4.64.58c-.53,0-.47,1.59,1.35,1.59a12.25,12.25,0,0,0,3.12-.51c-.14,1.66-.25,3.49-.25,5.25a24.86,24.86,0,0,0,.3,4.13c-.21.88-.85,2.65-2,2.65-2.27,0-1.19-7.78-1.19-8.94,0-.56-2.06-1.75-2.49-1.33a1.24,1.24,0,0,0-.1.39,1.86,1.86,0,0,0-1-.2c-2.89,0-5.22,3.55-5.22,6.79,0,.15,0,.3,0,.45C32.2,16.15,31.07,18,29,18a2.67,2.67,0,0,1-2.27-1.54A5.9,5.9,0,0,0,31.17,11a3.09,3.09,0,0,0-3.05-3.1c-2.24,0-4.7,2.22-4.7,6A7,7,0,0,0,24,16.69,2.3,2.3,0,0,1,22.13,18c-2.32,0-.76-7.73-.76-8.55A.94.94,0,0,0,21,8.55a24.57,24.57,0,0,0-4.22-.89c0-.21,0-.4,0-.57,0-1.49-.95-1.83-1.55-1.83-1,0-1.25,1.14-1.25,1.42A2.12,2.12,0,0,0,15.1,8.52c0,2.79-1.79,9.38-6.6,9.38-3.63,0-4.95-3.71-4.95-6.48,0-4.65,2.75-8.25,4.52-8.25,2.24,0,.27,4.27,2.5,4.27,1.57,0,1.79-1.51,1.79-2.21A4.17,4.17,0,0,0,8.08,1.5C3.44,1.5,0,7.11,0,11.92c0,4.63,3.2,8.35,7.69,8.35,6.92,0,8.65-7.3,9-11.39a14.11,14.11,0,0,1,1.65.42c.18.18-.35,2.66-.35,5,0,3,1,5.4,3.37,5.4a4.48,4.48,0,0,0,3.31-1.9,4.75,4.75,0,0,0,3.71,1.86A5.6,5.6,0,0,0,33,17.08a3.6,3.6,0,0,0,3.19,2.62c1.69,0,2.7-2.25,2.76-2.61a3.45,3.45,0,0,0,3,2.65c1.7,0,2.72-1.53,3.14-2.49.6,1.61,1.56,2.49,2.94,2.49,1.58,0,2.63-1.43,3.1-2.39.5,1.4,1.33,2.39,2.65,2.39,1.77,0,2.88-1.8,3.24-2.72.59,1.55,1.5,2.66,2.9,2.66,1.56,0,2.91-2.22,3.72-4.73a4.6,4.6,0,0,0,2.56,1.21,4.9,4.9,0,0,0,4.57,3.52c3.39,0,4.7-3.46,4.84-4.27s-.65-1.81-.91-1.55"/></g></g></svg>