<svg xmlns="http://www.w3.org/2000/svg" viewBox="0 0 165.76 71.29"><defs><style>.cls-1{fill:#fff;}</style></defs><g id="Calque_2" data-name="Calque 2"><g id="Background"><path class="cls-1" d="M2.06,41.53v1.88H4.8v1H2.06v1.83H4.8v1H1V40.55H4.8v1Z"/><path class="cls-1" d="M9,44.39c-.05-.49-.34-.81-1-.81s-1.19.65-1.19,1.4S7.13,46.39,8,46.39a.89.89,0,0,0,1-.71h1A1.91,1.91,0,0,1,8,47.31a2.33,2.33,0,0,1,0-4.65A1.87,1.87,0,0,1,10,44.39Z"/><path class="cls-1" d="M10.75,45a2.27,2.27,0,0,1,2.32-2.32A2.33,2.33,0,1,1,10.75,45Zm3.63,0a1.3,1.3,0,1,0-1.31,1.41A1.32,1.32,0,0,0,14.38,45Z"/><path class="cls-1" d="M16.43,40.55h1V47.2h-1Z"/><path class="cls-1" d="M19.52,45.3a1.08,1.08,0,0,0,1.19,1.15.88.88,0,0,0,.94-.58H22.7a1.88,1.88,0,0,1-2,1.44,2.33,2.33,0,0,1,0-4.65,2,2,0,0,1,2.05,2,4.4,4.4,0,0,1,0,.65Zm0-.77h2.21a1,1,0,0,0-1.08-1.09A1,1,0,0,0,19.52,44.53Z"/><path class="cls-1" d="M27.08,43.37a1.64,1.64,0,0,1,1.37-.71,2.33,2.33,0,0,1,0,4.65,1.64,1.64,0,0,1-1.37-.71v2.82H26V42.77h1Zm0,1.61a1.3,1.3,0,1,0,1.31-1.4A1.33,1.33,0,0,0,27.08,45Z"/><path class="cls-1" d="M34.53,43.73a1.37,1.37,0,0,0-.4,0c-.89,0-1.37.51-1.37,1.61V47.2h-1V42.77h1v.71a1.6,1.6,0,0,1,1.37-.77,1,1,0,0,1,.4.07Z"/><path class="cls-1" d="M35,45a2.34,2.34,0,1,1,2.33,2.33A2.27,2.27,0,0,1,35,45Zm3.64,0a1.31,1.31,0,1,0-1.31,1.41A1.32,1.32,0,0,0,38.61,45Z"/><path class="cls-1" d="M43.21,41.48a1.63,1.63,0,0,0-.45-.07c-.33,0-.71,0-.71.69v.67h1.16v.86H42.05V47.2H41V43.63h-.91v-.86H41v-.55c0-1.69,1.08-1.73,1.59-1.73a1.55,1.55,0,0,1,.6.11Z"/><path class="cls-1" d="M44.71,45.3a1.08,1.08,0,0,0,1.19,1.15.89.89,0,0,0,.94-.58h1a1.86,1.86,0,0,1-2,1.44,2.33,2.33,0,0,1,0-4.65,2,2,0,0,1,2.05,2,3.53,3.53,0,0,1-.05.65Zm0-.77h2.2a1,1,0,0,0-1.07-1.09A1,1,0,0,0,44.71,44.53Z"/><path class="cls-1" d="M52.24,46c0,.92-.79,1.35-1.76,1.35a1.65,1.65,0,0,1-1.81-1.6h1c0,.58.36.78.85.78s.73-.13.73-.51-.45-.44-1.38-.81c-.62-.23-1.06-.46-1.06-1.23s.76-1.28,1.67-1.28a1.57,1.57,0,0,1,1.69,1.5h-1a.62.62,0,0,0-.71-.69c-.35,0-.64.17-.64.49s.41.43,1.22.74C51.65,44.94,52.24,45.16,52.24,46Z"/><path class="cls-1" d="M56.55,46c0,.92-.8,1.35-1.77,1.35a1.64,1.64,0,0,1-1.8-1.6h1c0,.58.37.78.86.78s.72-.13.72-.51-.45-.44-1.38-.81c-.61-.23-1-.46-1-1.23s.76-1.28,1.66-1.28a1.57,1.57,0,0,1,1.69,1.5h-1a.63.63,0,0,0-.72-.69c-.35,0-.63.17-.63.49s.41.43,1.21.74C56,44.94,56.55,45.16,56.55,46Z"/><path class="cls-1" d="M58.1,40.39a.77.77,0,0,1,.77.76.78.78,0,0,1-.77.77.77.77,0,0,1-.76-.77A.76.76,0,0,1,58.1,40.39Zm-.52,2.38h1V47.2h-1Z"/><path class="cls-1" d="M59.58,45a2.34,2.34,0,1,1,2.33,2.33A2.27,2.27,0,0,1,59.58,45Zm3.64,0a1.3,1.3,0,1,0-1.31,1.41A1.32,1.32,0,0,0,63.22,45Z"/><path class="cls-1" d="M65.26,42.77h1v.62a1.57,1.57,0,0,1,1.45-.73,1.5,1.5,0,0,1,1.33.59,2.26,2.26,0,0,1,.28,1.32V47.2h-1V44.91c0-.76-.22-1.34-1-1.34s-1.07.58-1.07,1.34V47.2h-1Z"/><path class="cls-1" d="M70.6,42.77h1v.62a1.56,1.56,0,0,1,1.44-.73,1.5,1.5,0,0,1,1.33.59,2.25,2.25,0,0,1,.29,1.32V47.2h-1V44.91c0-.76-.22-1.34-1-1.34s-1.06.58-1.06,1.34V47.2h-1Z"/><path class="cls-1" d="M76.7,45.3a1.08,1.08,0,0,0,1.19,1.15.89.89,0,0,0,.94-.58h1a1.86,1.86,0,0,1-2,1.44,2.33,2.33,0,0,1,0-4.65,2,2,0,0,1,2,2,3.53,3.53,0,0,1,0,.65Zm0-.77h2.2a1,1,0,0,0-1.07-1.09A1,1,0,0,0,76.7,44.53Z"/><path class="cls-1" d="M81,40.55h1V47.2H81Z"/><path class="cls-1" d="M83.3,40.55h1V47.2h-1Z"/><path class="cls-1" d="M86.39,45.3a1.07,1.07,0,0,0,1.18,1.15.9.9,0,0,0,1-.58h1a1.87,1.87,0,0,1-2,1.44,2.33,2.33,0,0,1,0-4.65,2,2,0,0,1,2,2,3.53,3.53,0,0,1,0,.65Zm0-.77h2.2a1,1,0,0,0-1.07-1.09A1,1,0,0,0,86.39,44.53Z"/><path class="cls-1" d="M93.62,45.3a1.08,1.08,0,0,0,1.19,1.15.88.88,0,0,0,.94-.58h1a1.88,1.88,0,0,1-2,1.44,2.33,2.33,0,0,1,0-4.65,2,2,0,0,1,2,2,4.4,4.4,0,0,1,0,.65Zm0-.77h2.21a1,1,0,0,0-1.08-1.09A1,1,0,0,0,93.62,44.53Z"/><path class="cls-1" d="M97.9,42.77h1v.62a1.57,1.57,0,0,1,1.45-.73,1.5,1.5,0,0,1,1.33.59,2.26,2.26,0,0,1,.28,1.32V47.2h-1V44.91c0-.76-.22-1.34-1-1.34s-1.07.58-1.07,1.34V47.2h-1Z"/><path class="cls-1" d="M109.84,42.77V47.2h-1v-.6a1.64,1.64,0,0,1-1.37.71,2.33,2.33,0,0,1,0-4.65,1.64,1.64,0,0,1,1.37.71v-.6Zm-1,2.21a1.3,1.3,0,1,0-1.31,1.41A1.32,1.32,0,0,0,108.8,45Z"/><path class="cls-1" d="M113.94,43.73a1.37,1.37,0,0,0-.4,0c-.89,0-1.37.51-1.37,1.61V47.2h-1V42.77h1v.71a1.6,1.6,0,0,1,1.37-.77,1,1,0,0,1,.4.07Z"/><path class="cls-1" d="M117.37,47.2a5,5,0,0,1-.77,0c-.5,0-1.43-.06-1.43-1.55V43.63h-.75v-.86h.75V41.43h1v1.34h1v.86h-1v1.83c0,.77.24.86.65.86l.52,0Z"/><path class="cls-1" d="M121.52,46c0,.92-.8,1.35-1.77,1.35a1.64,1.64,0,0,1-1.8-1.6h1c0,.58.36.78.86.78s.72-.13.72-.51-.45-.44-1.38-.81c-.62-.23-1.05-.46-1.05-1.23s.76-1.28,1.66-1.28a1.57,1.57,0,0,1,1.69,1.5h-1a.62.62,0,0,0-.71-.69c-.35,0-.63.17-.63.49s.4.43,1.21.74C120.93,44.94,121.52,45.16,121.52,46Z"/><path class="cls-1" d="M129.14,42.77V47.2h-1v-.6a1.67,1.67,0,0,1-1.37.71,2.33,2.33,0,0,1,0-4.65,1.67,1.67,0,0,1,1.37.71v-.6Zm-1,2.21a1.31,1.31,0,1,0-1.32,1.41A1.33,1.33,0,0,0,128.11,45Z"/><path class="cls-1" d="M131.47,43.37a1.67,1.67,0,0,1,1.37-.71,2.33,2.33,0,0,1,0,4.65,1.67,1.67,0,0,1-1.37-.71v2.82h-1V42.77h1Zm0,1.61a1.31,1.31,0,1,0,1.31-1.4A1.33,1.33,0,0,0,131.47,45Z"/><path class="cls-1" d="M137.15,43.37a1.67,1.67,0,0,1,1.37-.71,2.33,2.33,0,0,1,0,4.65,1.67,1.67,0,0,1-1.37-.71v2.82h-1V42.77h1Zm0,1.61a1.3,1.3,0,1,0,1.31-1.4A1.33,1.33,0,0,0,137.15,45Z"/><path class="cls-1" d="M141.8,40.55h1V47.2h-1Z"/><path class="cls-1" d="M144.65,40.39a.77.77,0,0,1,.77.76.78.78,0,0,1-.77.77.77.77,0,0,1-.76-.77A.76.76,0,0,1,144.65,40.39Zm-.52,2.38h1V47.2h-1Z"/><path class="cls-1" d="M149.79,42.77h1v6.65h-1V46.6a1.67,1.67,0,0,1-1.37.71,2.33,2.33,0,0,1,0-4.65,1.67,1.67,0,0,1,1.37.71ZM147.18,45a1.31,1.31,0,1,0,1.3-1.4A1.33,1.33,0,0,0,147.18,45Z"/><path class="cls-1" d="M156.17,42.77V47.2h-1v-.62a1.59,1.59,0,0,1-1.44.73,1.49,1.49,0,0,1-1.33-.6,2.2,2.2,0,0,1-.29-1.31V42.77h1v2.29c0,.76.21,1.34,1,1.34s1.06-.58,1.06-1.34V42.77Z"/><path class="cls-1" d="M158.22,45.3a1.08,1.08,0,0,0,1.19,1.15.88.88,0,0,0,.94-.58h1a1.86,1.86,0,0,1-2,1.44,2.33,2.33,0,0,1,0-4.65,2,2,0,0,1,2.05,2,3.53,3.53,0,0,1-.05.65Zm.15-2.81-.49-.8,2.36-1.3.5.8Zm-.15,2h2.2a1,1,0,0,0-1.07-1.09A1,1,0,0,0,158.22,44.53Z"/><path class="cls-1" d="M165.76,46c0,.92-.8,1.35-1.77,1.35a1.65,1.65,0,0,1-1.81-1.6h1c0,.58.36.78.86.78s.72-.13.72-.51-.45-.44-1.38-.81c-.62-.23-1-.46-1-1.23s.76-1.28,1.66-1.28a1.57,1.57,0,0,1,1.69,1.5h-1a.62.62,0,0,0-.71-.69c-.35,0-.64.17-.64.49s.41.43,1.22.74C165.17,44.94,165.76,45.16,165.76,46Z"/><path class="cls-1" d="M1,51.48H3.23c1.83,0,2.14,1.1,2.14,1.79A1.52,1.52,0,0,1,4.2,54.75a1.43,1.43,0,0,1,1.23,1.5c0,.69-.36,1.88-2.19,1.88H1Zm2.27,2.79c.9,0,1.05-.58,1.05-.9s-.15-.91-1.05-.91H2.06v1.81Zm-1.17,1v1.9H3.29c.89,0,1-.55,1-.94a1,1,0,0,0-1-1Z"/><path class="cls-1" d="M7.34,56.23a1.08,1.08,0,0,0,1.19,1.15.88.88,0,0,0,.94-.58h1a1.88,1.88,0,0,1-2,1.44,2.1,2.1,0,0,1-2.21-2.32A2.12,2.12,0,0,1,8.5,53.59a2,2,0,0,1,2.05,2,4.33,4.33,0,0,1,0,.65Zm0-.77H9.55a1,1,0,0,0-1.08-1.09A1,1,0,0,0,7.34,55.46Z"/><path class="cls-1" d="M14.43,54.66a1.4,1.4,0,0,0-.41,0c-.88,0-1.36.51-1.36,1.61v1.91h-1V53.7h1v.71A1.61,1.61,0,0,1,14,53.65a1,1,0,0,1,.41.06Z"/><path class="cls-1" d="M19.22,53.7v4.43h-1v-.62a1.56,1.56,0,0,1-1.44.73,1.5,1.5,0,0,1-1.33-.59,2.25,2.25,0,0,1-.29-1.32V53.7h1V56c0,.76.22,1.34,1,1.34s1.06-.58,1.06-1.34V53.7Z"/><path class="cls-1" d="M23.11,52.41a1.7,1.7,0,0,0-.46-.07c-.32,0-.7,0-.7.7v.66h1.16v.87H22v3.56h-1V54.57H20V53.7h.9v-.55c0-1.69,1.09-1.73,1.6-1.73a1.39,1.39,0,0,1,.6.12Z"/><path class="cls-1" d="M27.17,56.9c0,.92-.8,1.34-1.77,1.34a1.64,1.64,0,0,1-1.8-1.6h1c0,.58.36.79.85.79s.72-.14.72-.52-.44-.44-1.37-.8c-.62-.24-1.06-.47-1.06-1.24s.76-1.28,1.66-1.28a1.59,1.59,0,0,1,1.7,1.5h-1a.62.62,0,0,0-.71-.68c-.36,0-.64.17-.64.48s.41.43,1.22.74C26.58,55.87,27.17,56.09,27.17,56.9Z"/><path class="cls-1" d="M30.85,52.41a1.63,1.63,0,0,0-.45-.07c-.33,0-.71,0-.71.7v.66h1.16v.87H29.69v3.56h-1V54.57h-.91V53.7h.91v-.55c0-1.69,1.08-1.73,1.59-1.73a1.36,1.36,0,0,1,.6.12Z"/><path class="cls-1" d="M36,53.7v4.43h-1v-.6a1.64,1.64,0,0,1-1.37.71,2.33,2.33,0,0,1,0-4.65,1.66,1.66,0,0,1,1.37.71v-.6Zm-1,2.22a1.3,1.3,0,1,0-1.31,1.4A1.33,1.33,0,0,0,34.92,55.92Z"/><path class="cls-1" d="M40.24,55.32c-.06-.49-.34-.81-1-.81S38,55.17,38,55.92s.36,1.4,1.25,1.4a.88.88,0,0,0,1-.71h1a1.92,1.92,0,0,1-2.1,1.63,2.33,2.33,0,0,1,0-4.65,1.87,1.87,0,0,1,2.1,1.73Z"/><path class="cls-1" d="M42.3,51.48h1v2.84a1.57,1.57,0,0,1,1.45-.73,1.51,1.51,0,0,1,1.33.6,2.2,2.2,0,0,1,.28,1.31v2.63h-1V55.84c0-.76-.22-1.34-1-1.34s-1.07.58-1.07,1.34v2.29h-1Z"/><path class="cls-1" d="M50.91,56.9c0,.92-.8,1.34-1.77,1.34a1.65,1.65,0,0,1-1.81-1.6h1c0,.58.36.79.86.79s.72-.14.72-.52-.45-.44-1.38-.8c-.62-.24-1-.47-1-1.24s.76-1.28,1.66-1.28a1.58,1.58,0,0,1,1.69,1.5h-1a.62.62,0,0,0-.71-.68c-.35,0-.64.17-.64.48s.41.43,1.22.74C50.32,55.87,50.91,56.09,50.91,56.9Z"/><path class="cls-1" d="M54.91,55.32c-.06-.49-.35-.81-1-.81s-1.19.66-1.19,1.41.36,1.4,1.26,1.4a.89.89,0,0,0,1-.71h1a1.91,1.91,0,0,1-2.1,1.63,2.33,2.33,0,0,1,0-4.65,1.86,1.86,0,0,1,2.1,1.73Z"/><path class="cls-1" d="M57,51.48h1v2.84a1.57,1.57,0,0,1,1.44-.73,1.49,1.49,0,0,1,1.33.6,2.2,2.2,0,0,1,.29,1.31v2.63H60V55.84c0-.76-.21-1.34-1-1.34S58,55.08,58,55.84v2.29H57Z"/><path class="cls-1" d="M66.33,53.7v4.43h-1v-.62a1.55,1.55,0,0,1-1.44.73,1.5,1.5,0,0,1-1.33-.59,2.25,2.25,0,0,1-.29-1.32V53.7h1V56c0,.76.22,1.34,1,1.34s1.06-.58,1.06-1.34V53.7Z"/><path class="cls-1" d="M67.62,51.48h1v6.65h-1Z"/><path class="cls-1" d="M70.71,56.23a1.08,1.08,0,0,0,1.19,1.15.88.88,0,0,0,.94-.58h1a1.88,1.88,0,0,1-2,1.44,2.1,2.1,0,0,1-2.21-2.32,2.12,2.12,0,0,1,2.18-2.33,2,2,0,0,1,2,2,4.33,4.33,0,0,1,0,.65Zm0-.77h2.21a1,1,0,0,0-1.08-1.09A1,1,0,0,0,70.71,55.46Z"/><path class="cls-1" d="M79.83,52.41a1.7,1.7,0,0,0-.46-.07c-.32,0-.7,0-.7.7v.66h1.16v.87H78.67v3.56h-1V54.57h-.9V53.7h.9v-.55c0-1.69,1.09-1.73,1.6-1.73a1.36,1.36,0,0,1,.6.12Z"/><path class="cls-1" d="M84.64,58.13h-1v-.62a1.57,1.57,0,0,1-1.44.73,1.49,1.49,0,0,1-1.33-.59,2.25,2.25,0,0,1-.29-1.32V53.7h1V56c0,.76.21,1.34,1,1.34S83.6,56.75,83.6,56V53.7h1Zm-3.13-6.6a.77.77,0,1,1-.76.77A.76.76,0,0,1,81.51,51.53Zm2.18,0a.77.77,0,1,1-.76.77A.76.76,0,0,1,83.69,51.53Z"/><path class="cls-1" d="M88.74,54.66a1.4,1.4,0,0,0-.41,0c-.88,0-1.36.51-1.36,1.61v1.91h-1V53.7h1v.71a1.61,1.61,0,0,1,1.36-.76,1,1,0,0,1,.41.06Z"/><path class="cls-1" d="M95.61,54.8h3.16v1H98a3,3,0,0,1-3.24,2.52,3.35,3.35,0,0,1-3.42-3.49,3.39,3.39,0,0,1,3.42-3.48,2.64,2.64,0,0,1,2.83,2.15h-1.1A1.65,1.65,0,0,0,94.8,52.3a2.51,2.51,0,0,0,.14,5,1.85,1.85,0,0,0,1.94-1.54H95.61Z"/><path class="cls-1" d="M100.44,56.23a1.08,1.08,0,0,0,1.19,1.15.88.88,0,0,0,.94-.58h1a1.86,1.86,0,0,1-2,1.44,2.33,2.33,0,0,1,0-4.65,2,2,0,0,1,2.05,2,3.48,3.48,0,0,1-.05.65Zm0-.77h2.2a1,1,0,0,0-1.07-1.09A1,1,0,0,0,100.44,55.46Z"/><path class="cls-1" d="M108,56.9c0,.92-.8,1.34-1.77,1.34a1.65,1.65,0,0,1-1.81-1.6h1c0,.58.36.79.86.79s.72-.14.72-.52-.45-.44-1.38-.8c-.62-.24-1-.47-1-1.24s.76-1.28,1.66-1.28a1.58,1.58,0,0,1,1.69,1.5h-1a.62.62,0,0,0-.71-.68c-.35,0-.64.17-.64.48s.41.43,1.22.74C107.39,55.87,108,56.09,108,56.9Z"/><path class="cls-1" d="M111.51,58.13a4.66,4.66,0,0,1-.76.06c-.51,0-1.44-.07-1.44-1.56V54.57h-.75V53.7h.75V52.36h1V53.7h1v.87h-1v1.82c0,.77.23.87.64.87a3.67,3.67,0,0,0,.52,0Z"/><path class="cls-1" d="M116.66,53.7v4.43h-1v-.6a1.63,1.63,0,0,1-1.36.71,2.33,2.33,0,0,1,0-4.65,1.66,1.66,0,0,1,1.36.71v-.6Zm-1,2.22a1.3,1.3,0,1,0-1.31,1.4A1.33,1.33,0,0,0,115.62,55.92Z"/><path class="cls-1" d="M118,51.48h1v6.65h-1Z"/><path class="cls-1" d="M122.74,58.13a4.69,4.69,0,0,1-.77.06c-.5,0-1.43-.07-1.43-1.56V54.57h-.75V53.7h.75V52.36h1V53.7h1v.87h-1v1.82c0,.77.24.87.65.87a3.67,3.67,0,0,0,.52,0Z"/><path class="cls-1" d="M127.55,53.7v4.43h-1v-.62a1.57,1.57,0,0,1-1.45.73,1.5,1.5,0,0,1-1.33-.59,2.26,2.26,0,0,1-.28-1.32V53.7h1V56c0,.76.22,1.34,1,1.34s1.07-.58,1.07-1.34V53.7Z"/><path class="cls-1" d="M128.85,53.7h1v.62a1.57,1.57,0,0,1,1.45-.73,1.52,1.52,0,0,1,1.33.6,2.28,2.28,0,0,1,.28,1.31v2.63h-1V55.84c0-.76-.22-1.34-1-1.34s-1.07.58-1.07,1.34v2.29h-1Z"/><path class="cls-1" d="M138.59,58.35A2,2,0,0,1,138,60a2.62,2.62,0,0,1-1.74.51,2.36,2.36,0,0,1-1.65-.57,1.87,1.87,0,0,1-.59-1.27h1a1.07,1.07,0,0,0,1.19.91c.83,0,1.33-.36,1.33-1.19v-.82a1.65,1.65,0,0,1-1.37.71,2.33,2.33,0,0,1,0-4.65,1.68,1.68,0,0,1,1.37.71v-.6h1Zm-3.66-2.43a1.3,1.3,0,1,0,1.29-1.41A1.31,1.31,0,0,0,134.93,55.92Z"/><path class="cls-1" d="M3.36,69.06H2.59L.29,62.41H1.44L3,67.25l1.53-4.84H5.66Z"/><path class="cls-1" d="M5.61,66.85a2.27,2.27,0,0,1,2.33-2.33,2.33,2.33,0,1,1,0,4.66A2.28,2.28,0,0,1,5.61,66.85Zm3.64,0a1.3,1.3,0,1,0-1.31,1.41A1.33,1.33,0,0,0,9.25,66.85Z"/><path class="cls-1" d="M14.27,66.25c0-.48-.34-.81-1-.81S12,66.1,12,66.85s.36,1.41,1.25,1.41a.89.89,0,0,0,1-.72h1a1.92,1.92,0,0,1-2.1,1.64,2.33,2.33,0,0,1,0-4.66,1.88,1.88,0,0,1,2.1,1.73Z"/><path class="cls-1" d="M20.69,64.64v4.42h-1v-.6a1.65,1.65,0,0,1-1.37.72,2.33,2.33,0,0,1,0-4.66,1.66,1.66,0,0,1,1.37.71v-.59Zm-1,2.21a1.3,1.3,0,1,0-1.31,1.41A1.33,1.33,0,0,0,19.65,66.85Z"/><path class="cls-1" d="M24.43,69.06a4.69,4.69,0,0,1-.77.06c-.5,0-1.43-.07-1.43-1.56V65.5h-.75v-.86h.75V63.3h1v1.34h1v.86h-1v1.82c0,.77.23.87.64.87a3.67,3.67,0,0,0,.52,0Z"/><path class="cls-1" d="M25.73,62.25A.77.77,0,1,1,25,63,.76.76,0,0,1,25.73,62.25Zm-.51,2.39h1v4.42h-1Z"/><path class="cls-1" d="M27.22,66.85a2.34,2.34,0,1,1,2.32,2.33A2.27,2.27,0,0,1,27.22,66.85Zm3.63,0a1.3,1.3,0,1,0-1.31,1.41A1.33,1.33,0,0,0,30.85,66.85Z"/><path class="cls-1" d="M32.89,64.64h1v.61a1.59,1.59,0,0,1,1.44-.73,1.49,1.49,0,0,1,1.33.6A2.2,2.2,0,0,1,37,66.43v2.63H36V66.77c0-.76-.21-1.34-1-1.34s-1.06.58-1.06,1.34v2.29h-1Z"/><path class="cls-1" d="M42.61,64.64v4.42h-1v-.6a1.67,1.67,0,0,1-1.37.72,2.33,2.33,0,0,1,0-4.66,1.69,1.69,0,0,1,1.37.71v-.59Zm-1,2.21a1.3,1.3,0,1,0-1.31,1.41A1.33,1.33,0,0,0,41.58,66.85Z"/><path class="cls-1" d="M43.91,62.41h1v6.65h-1Z"/><path class="cls-1" d="M49.32,66.89a1.24,1.24,0,0,0,1.29,1.36,1,1,0,0,0,1.09-1c0-.68-.6-.9-1.05-1.06-1.22-.42-2.2-.79-2.2-2.13a1.91,1.91,0,0,1,2.07-1.82,2,2,0,0,1,2.11,2.08H51.54a1,1,0,0,0-1-1.1c-.54,0-1,.28-1,.84s.47.8,1,1c1,.37,2.28.81,2.28,2.08a2.08,2.08,0,0,1-2.28,2.09,2.22,2.22,0,0,1-2.29-2.33Z"/><path class="cls-1" d="M56.87,66.25c-.06-.48-.35-.81-1-.81s-1.19.66-1.19,1.41.36,1.41,1.26,1.41a.9.9,0,0,0,1-.72h1a1.92,1.92,0,0,1-2.1,1.64,2.33,2.33,0,0,1,0-4.66,1.87,1.87,0,0,1,2.1,1.73Z"/><path class="cls-1" d="M58.92,62.41h1v2.84a1.59,1.59,0,0,1,1.45-.73,1.52,1.52,0,0,1,1.33.6A2.28,2.28,0,0,1,63,66.43v2.63H62V66.77c0-.76-.21-1.34-1-1.34S60,66,60,66.77v2.29h-1Z"/><path class="cls-1" d="M64,66.85a2.34,2.34,0,1,1,2.33,2.33A2.27,2.27,0,0,1,64,66.85Zm3.64,0a1.3,1.3,0,1,0-1.31,1.41A1.33,1.33,0,0,0,67.61,66.85Z"/><path class="cls-1" d="M69.35,66.85a2.34,2.34,0,1,1,2.33,2.33A2.27,2.27,0,0,1,69.35,66.85Zm3.64,0a1.3,1.3,0,1,0-1.31,1.41A1.33,1.33,0,0,0,73,66.85Z"/><path class="cls-1" d="M75,62.41h1v6.65H75Z"/><path class="cls-1" d="M79.32,66.85a2.34,2.34,0,1,1,2.33,2.33A2.27,2.27,0,0,1,79.32,66.85Zm3.64,0a1.31,1.31,0,1,0-1.31,1.41A1.33,1.33,0,0,0,83,66.85Z"/><path class="cls-1" d="M87.56,63.34a2.13,2.13,0,0,0-.45-.06c-.33,0-.71,0-.71.69v.67h1.16v.86H86.4v3.56h-1V65.5h-.91v-.86h.91v-.56c0-1.69,1.08-1.72,1.59-1.72a1.38,1.38,0,0,1,.6.11Z"/><path class="cls-1" d="M94.12,69.06l-.29-.84H91.34l-.29.84H89.9l2.3-6.65H93l2.3,6.65Zm-1.53-4.83-.92,3H93.5Z"/><path class="cls-1" d="M97,65.23a1.69,1.69,0,0,1,1.37-.71,2.33,2.33,0,0,1,0,4.66A1.67,1.67,0,0,1,97,68.46v2.83H96V64.64h1Zm0,1.62a1.3,1.3,0,1,0,1.31-1.41A1.33,1.33,0,0,0,97,66.85Z"/><path class="cls-1" d="M102.72,65.23a1.66,1.66,0,0,1,1.37-.71,2.33,2.33,0,0,1,0,4.66,1.65,1.65,0,0,1-1.37-.72v2.83h-1V64.64h1Zm0,1.62A1.3,1.3,0,1,0,104,65.44,1.33,1.33,0,0,0,102.72,66.85Z"/><path class="cls-1" d="M107.37,62.41h1v6.65h-1Z"/><path class="cls-1" d="M110.21,62.25a.77.77,0,1,1-.76.77A.76.76,0,0,1,110.21,62.25Zm-.51,2.39h1v4.42h-1Z"/><path class="cls-1" d="M112.76,67.16A1.08,1.08,0,0,0,114,68.31a.87.87,0,0,0,.94-.58h1a1.87,1.87,0,0,1-2,1.45,2.33,2.33,0,0,1,0-4.66,2,2,0,0,1,2,2,3.38,3.38,0,0,1,0,.64Zm0-.77H115a1,1,0,0,0-1.07-1.09A1,1,0,0,0,112.76,66.39Z"/><path class="cls-1" d="M120.37,68.46a1.65,1.65,0,0,1-1.37.72,2.33,2.33,0,0,1,0-4.66,1.66,1.66,0,0,1,1.37.71V62.41h1v6.65h-1Zm0-1.61a1.3,1.3,0,1,0-1.31,1.41A1.33,1.33,0,0,0,120.37,66.85Z"/><path class="cls-1" d="M128.54,69.06l-.29-.84h-2.5l-.28.84h-1.15l2.3-6.65h.77l2.3,6.65ZM127,64.23l-.92,3h1.83Z"/><path class="cls-1" d="M133.23,65.59a1.84,1.84,0,0,0-.41,0c-.88,0-1.36.5-1.36,1.6v1.91h-1V64.64h1v.71a1.59,1.59,0,0,1,1.36-.77,1.18,1.18,0,0,1,.41.06Z"/><path class="cls-1" d="M136.66,69.06a4.8,4.8,0,0,1-.77.06c-.5,0-1.43-.07-1.43-1.56V65.5h-.75v-.86h.75V63.3h1v1.34h1v.86h-1v1.82c0,.77.24.87.65.87a3.67,3.67,0,0,0,.52,0Z"/><path class="cls-1" d="M140.81,67.83c0,.92-.8,1.35-1.77,1.35a1.64,1.64,0,0,1-1.8-1.61h1c0,.58.36.79.86.79s.72-.13.72-.51-.45-.45-1.38-.81c-.62-.24-1.05-.47-1.05-1.24s.76-1.28,1.66-1.28a1.58,1.58,0,0,1,1.69,1.5h-1c0-.42-.2-.68-.71-.68-.35,0-.63.17-.63.48s.4.43,1.21.74C140.22,66.8,140.81,67,140.81,67.83Z"/><path class="cls-1" d="M8,7.76A7.29,7.29,0,0,1,15.46,15a12.9,12.9,0,0,1-.18,2.35H3.85c0,2.33,1.21,4.2,4.22,4.2a3.24,3.24,0,0,0,3.44-2.12h3.81c-.56,2.77-3.09,5.27-7.25,5.27C2.67,24.74,0,20.65,0,16.25,0,11.4,2.88,7.76,8,7.76Zm3.81,6.83a3.58,3.58,0,0,0-3.91-3.68c-2.22,0-4,1.28-4,3.68Z"/><path class="cls-1" d="M20.61,0a2.52,2.52,0,1,1-2.5,2.53A2.53,2.53,0,0,1,20.61,0ZM18.74,24.32V8.18h3.78V24.32Z"/><path class="cls-1" d="M26.63,24.32V.07h3.78V15.31l5.92-7.13h4.72l-6.73,8.07,6.73,8.07H36.33l-5.92-7.1v7.1Z"/><path class="cls-1" d="M49.34,7.76a8.33,8.33,0,0,1,8.56,8.49,8.53,8.53,0,0,1-17,0A8.29,8.29,0,0,1,49.34,7.76Zm0,13.62a4.85,4.85,0,0,0,4.78-5.13,4.85,4.85,0,0,0-4.78-5.13c-2.88,0-4.71,2.36-4.71,5.13S46.46,21.38,49.34,21.38Z"/><path class="cls-1" d="M60.67,24.32V8.18h3.77v2.25a5.68,5.68,0,0,1,5.27-2.67,5.48,5.48,0,0,1,4.85,2.18c.8,1.22,1,2.57,1,4.78v9.6H71.83V16c0-2.77-.84-4.88-3.5-4.88S64.44,13.2,64.44,16v8.35Z"/><polygon class="cls-1" points="33.19 26.92 0.56 26.92 0.56 28.65 34 28.65 33.19 26.92"/><polygon class="cls-1" points="35.56 26.92 36.38 28.65 75.96 28.65 75.96 26.92 35.56 26.92"/></g></g></svg>