<svg xmlns="http://www.w3.org/2000/svg" viewBox="0 0 116.28 104.72"><g id="Calque_2" data-name="Calque 2"><g id="Background"><path d="M3,102.17A8.9,8.9,0,0,1,0,95a8.9,8.9,0,0,1,3-7.14c2-1.7,4.79-2.55,8.42-2.55a11.51,11.51,0,0,1,8.07,2.72,9,9,0,0,1,3,7,8.91,8.91,0,0,1-3,7,11.71,11.71,0,0,1-8.07,2.64C7.76,104.72,5,103.87,3,102.17Zm1.45-66.3Q3.75,17.17,2.21,0H21.42q-1.7,20.06-2.8,39.44T17.51,76.5H5.1Q5.1,54.57,4.42,35.87Z"/><path d="M34.25,102.17a8.9,8.9,0,0,1-3-7.14,8.9,8.9,0,0,1,3-7.14q3-2.55,8.42-2.55a11.51,11.51,0,0,1,8.07,2.72,9,9,0,0,1,3,7,9,9,0,0,1-3,7,11.71,11.71,0,0,1-8.07,2.64Q37.22,104.72,34.25,102.17Zm1.45-66.3Q35,17.17,33.49,0H52.7Q51,20.06,49.89,39.44T48.79,76.5H36.38Q36.38,54.57,35.7,35.87Z"/><path d="M65.53,102.17a8.9,8.9,0,0,1-3-7.14,8.9,8.9,0,0,1,3-7.14q3-2.55,8.42-2.55A11.51,11.51,0,0,1,82,88.06a9,9,0,0,1,3,7,9,9,0,0,1-3,7A11.71,11.71,0,0,1,74,104.72Q68.51,104.72,65.53,102.17ZM67,35.87Q66.29,17.17,64.77,0H84q-1.71,20.06-2.81,39.44T80.07,76.5H67.66Q67.66,54.57,67,35.87Z"/><path d="M96.81,102.17a8.91,8.91,0,0,1-3-7.14,8.91,8.91,0,0,1,3-7.14c2-1.7,4.79-2.55,8.41-2.55a11.53,11.53,0,0,1,8.08,2.72,9,9,0,0,1,3,7,9,9,0,0,1-3,7,11.74,11.74,0,0,1-8.08,2.64C101.6,104.72,98.79,103.87,96.81,102.17Zm1.44-66.3Q97.57,17.17,96,0h19.21q-1.69,20.06-2.8,39.44t-1.1,37.06H98.94Q98.94,54.57,98.25,35.87Z"/></g></g></svg>