<svg xmlns="http://www.w3.org/2000/svg" viewBox="0 0 36.9 36.91"><defs><style>.cls-1{fill:#fff;}</style></defs><g id="Calque_2" data-name="Calque 2"><g id="Background"><path class="cls-1" d="M0,21.64V15.28s0-.08,0-.13c0-.91,0-1.82,0-2.73,0-1.06.07-2.12.2-3.18A12,12,0,0,1,.89,6.59,9.36,9.36,0,0,1,6.5.93,12.24,12.24,0,0,1,10.33.17c.92-.06,1.84-.09,2.76-.11C16.17,0,19.26,0,22.34,0c1.49,0,3,0,4.46.15a14.29,14.29,0,0,1,2.68.45,9.55,9.55,0,0,1,5.33,3.66,10,10,0,0,1,1.7,4.1,19.71,19.71,0,0,1,.3,3.07c0,1.23.08,2.47.08,3.7,0,2.58,0,5.15,0,7.73,0,1.45,0,2.9-.19,4.35a13.59,13.59,0,0,1-.51,2.6,9.43,9.43,0,0,1-4,5.27,10.68,10.68,0,0,1-4.52,1.54,23.94,23.94,0,0,1-2.67.18c-1.44,0-2.89.07-4.33.08q-3.33,0-6.65,0c-1.46,0-2.92,0-4.37-.19a12.68,12.68,0,0,1-2.86-.61A9.43,9.43,0,0,1,2.3,32.9,10,10,0,0,1,.39,28.49a21.15,21.15,0,0,1-.3-3.27c0-1.15,0-2.29-.08-3.44C0,21.73,0,21.69,0,21.64Zm18.49,12h0c1.78,0,3.56,0,5.34,0a23.87,23.87,0,0,0,4-.33,6.67,6.67,0,0,0,2.14-.67A6.14,6.14,0,0,0,33,28.92a12.88,12.88,0,0,0,.45-2.54c.11-1.15.16-2.31.16-3.46,0-1.62,0-3.24,0-4.86,0-1.84,0-3.68,0-5.51a25.74,25.74,0,0,0-.32-3.4,6.82,6.82,0,0,0-.51-1.83A6.13,6.13,0,0,0,28.82,3.9a13.86,13.86,0,0,0-2.94-.46c-1.2-.09-2.4-.13-3.61-.13l-4,0c-1.69,0-3.38,0-5.07,0A25.68,25.68,0,0,0,9,3.68a6.64,6.64,0,0,0-2.43.88A6.06,6.06,0,0,0,4,7.94a12,12,0,0,0-.47,2.59c-.11,1.2-.16,2.4-.16,3.6s0,2.59,0,3.89c0,2,0,3.91,0,5.87a23.55,23.55,0,0,0,.35,4,6.36,6.36,0,0,0,.87,2.4A6.06,6.06,0,0,0,8.16,33a12.41,12.41,0,0,0,2.26.38c1.13.12,2.26.17,3.39.18Z"/><path class="cls-1" d="M27.92,18.46A9.46,9.46,0,1,1,18.46,9,9.44,9.44,0,0,1,27.92,18.46Zm-9.46,6.15a6.15,6.15,0,1,0-6.15-6.16A6.15,6.15,0,0,0,18.46,24.61Z"/><path class="cls-1" d="M28.31,10.81a2.21,2.21,0,1,1,2.21-2.2A2.2,2.2,0,0,1,28.31,10.81Z"/></g></g></svg>