<svg xmlns="http://www.w3.org/2000/svg" viewBox="0 0 200.04 32.18"><g id="Calque_2" data-name="Calque 2"><g id="Background"><path d="M18.48.7C18,3,16.7,9.75,15.48,16.34c-.21,1.06-.39,2.13-.57,3.11,2.2,0,4.91,0,7.47-.12-.41,2-.77,4-1.16,6s-.71,4-1,6.06H0C.51,29,1.76,22.6,2.92,16.05,4.14,9.34,5.15,3.64,5.57.7Z"/><path d="M36.46,32.06c-11.31,0-14.58-5.4-12.68-15.93C25.51,6.59,30.3,4.55,38.93,4.55c10.89,0,15.12,3.88,13.13,14.94C50.39,28.66,45.6,32.06,36.46,32.06ZM38.57,12.9c-1.9,0-3,1-3.63,4.46-.71,4,.06,5.37,2.2,5.37,1.91,0,3-1.15,3.67-4.63C41.49,14.17,40.72,12.9,38.57,12.9Z"/><path d="M84.29,5.12c-2.89,6.71-9.14,22.27-10.75,26.29-2-.05-4.49-.09-8.15-.09-4.11,0-7.44,0-8.63.09-.15-3.61-1-19.49-1.52-26.29H67.17c-.23,1.88-.47,6.71-.68,11.3-.12,2.42-.21,4.67-.27,6.55h.33c.6-1.92,1.34-4.22,2.14-6.59,1.46-4.63,3-9.46,3.37-11.26Z"/><path d="M109.17,16.46c-.24,1.27-.62,2.74-.86,3.69-2.74-.09-6.64-.09-10-.13-2.18,0-4.17,0-5.54,0-.51,3.77.09,5,1.91,5,1.66,0,2.41-1,2.82-3.19.93.08,2.92.16,5,.16s3.9-.08,5.51-.16c-.89,7.08-3.07,10.27-13.84,10.27S79.85,27.56,81.82,16.79C83.57,7.08,87.89,4.38,97,4.38,108.4,4.38,110.57,8.76,109.17,16.46ZM98.84,15.31c.54-3.07.09-4.25-1.78-4.25s-2.65.94-3.55,4.75c1.37,0,3,.08,5.21,0Z"/><path d="M108.81,31.41c.92-4.47,1.7-8.85,2.86-15.36s2-10.93,2.71-15.35h12.53c-.9,4.42-1.7,8.8-2.86,15.31s-2,10.89-2.71,15.4Z"/><path d="M159.77.7c-.66,3-1.76,8.8-2.92,15.31-1.25,6.84-2.08,11.46-2.71,15.4h-13a88.44,88.44,0,0,0-3.06-9.54c-.39-1.93-.69-3.81-.9-5.74l0,0c-.3,2.5-.66,4.71-1,7.21-.68,4-1.16,6.8-1.31,8H124.38c.77-4.18,1.66-8.81,2.82-15.36S129.26,5,129.94.7h13.6c.12,1.63,2,7,2.89,10.36.24,1.47.45,3,.6,4.62l.12-.08c.26-2.09.53-4,.77-5.53.63-3.64,1.22-7.33,1.49-9.37Z"/><path d="M178.37,13c.47-2.7-.33-3.69-2.47-3.69s-3.22,1.15-4.05,5.78c-.89,4.91,0,6.59,2.35,6.59,2,0,2.89-1.43,3.27-3.6.09-.41.12-.82.18-1.23,1.73,0,4,0,6,0s4,0,6,0c-.12.9-.24,1.76-.39,2.54-1.79,9.74-5.3,12.73-16.4,12.73-12.32,0-15.66-6-13.48-17.89C161.34,3.52,166.37,0,176.7,0c12,0,15.24,4,14,11.1-.15.86-.39,1.8-.66,2.78-1.93,0-3.92,0-5.89,0s-4.29,0-6,0C178.25,13.55,178.31,13.27,178.37,13Z"/><path d="M199.79,26.12c-.68,3.89-2.82,5.65-5.89,5.65-3.66,0-5.36-2.37-4.43-7.41.68-3.76,2.82-5.44,5.83-5.44C199,18.92,200.72,21.17,199.79,26.12Z"/></g></g></svg>