<svg xmlns="http://www.w3.org/2000/svg" viewBox="0 0 298.7 84.12"><defs><style>.cls-1{fill:#fff;}</style></defs><g id="Calque_2" data-name="Calque 2"><g id="Background"><path class="cls-1" d="M.41,59.74c.41-2.2.79-5,1.13-8.45a119.29,119.29,0,0,0,.52-11.94V22.45A124.68,124.68,0,0,0,1.39,7.78,53.43,53.43,0,0,0,.1.31L0,0H28.43c.13.48.27,1,.41,1.44q.61,2,1.8,4.84a43.84,43.84,0,0,0,3,6l17.1,28.53H43V25.85A106,106,0,0,0,41.87,9.06a55.17,55.17,0,0,0-2-9V0H66c-.07.27-.12.48-.15.62s-.09.34-.16.62Q64,8.24,64,22.45v16.9c0,3.7.11,7,.31,10S64.74,54.9,65,57a38.81,38.81,0,0,0,1,4.84H37.59a2,2,0,0,1-.1-.52,1.67,1.67,0,0,0-.1-.51,28.54,28.54,0,0,0-3.92-9.37L15.24,21h7.83V32.55q0,6.29.41,11.84t1.14,9.94a72.5,72.5,0,0,0,1.54,7.37H0C.14,61,.27,60.36.41,59.74Z"/><path class="cls-1" d="M81.47,60.31a22.23,22.23,0,0,1-10.25-9q-3.64-6.07-3.65-15.24t3.65-15.24a22.23,22.23,0,0,1,10.25-9A37.57,37.57,0,0,1,96.82,8.86a37.48,37.48,0,0,1,15.4,2.93,22.58,22.58,0,0,1,10.25,9q3.7,6.07,3.7,15.24t-3.7,15.24a22.58,22.58,0,0,1-10.25,9,37.48,37.48,0,0,1-15.4,2.93A37.57,37.57,0,0,1,81.47,60.31Zm8.6-20.91a4.85,4.85,0,0,0,2.58,1.85,13.21,13.21,0,0,0,4.17.57,13.62,13.62,0,0,0,4.27-.57,4.58,4.58,0,0,0,2.53-1.85,6.14,6.14,0,0,0,.82-3.35,6.14,6.14,0,0,0-.82-3.35,4.58,4.58,0,0,0-2.53-1.85,13.62,13.62,0,0,0-4.27-.57,13.21,13.21,0,0,0-4.17.57,4.85,4.85,0,0,0-2.58,1.85,5.89,5.89,0,0,0-.87,3.35A5.89,5.89,0,0,0,90.07,39.4Z"/><path class="cls-1" d="M128.65,53.15a132.89,132.89,0,0,0,.61-13.8v-6.6A131.33,131.33,0,0,0,128.65,19a56.18,56.18,0,0,0-1.45-8.6h21l1,18.44h1.23a27.85,27.85,0,0,1,2-11.23A13.41,13.41,0,0,1,158.36,11a20.6,20.6,0,0,1,9.94-2.16l1.24,24.51a21.68,21.68,0,0,1-5.87-1.23c-1-.28-2-.54-3-.78a13.11,13.11,0,0,0-2.84-.36,8,8,0,0,0-5.35,1.81c-1.44,1.2-2.17,3.31-2.17,6.33v3.3a107.94,107.94,0,0,0,.62,12.92c.42,3.26.89,5.41,1.44,6.44H127.2A56.15,56.15,0,0,0,128.65,53.15Z"/><path class="cls-1" d="M178.29,42.74a58.07,58.07,0,0,0,7.88,2,47.52,47.52,0,0,0,8.6.83,2.91,2.91,0,0,0,1.7-.36,1,1,0,0,0,.46-.78A1.62,1.62,0,0,0,196,43a16.72,16.72,0,0,0-2.84-1.18q-1.85-.62-3.81-1.14c-1.51-.47-3-.92-4.53-1.33l-1.8-.62a16,16,0,0,1-1.7-.72A16.43,16.43,0,0,1,174,32.14a15.46,15.46,0,0,1-2.32-8.55q0-7.83,6.08-11.28a29.6,29.6,0,0,1,14.83-3.45,69.78,69.78,0,0,1,8.75.51c2.68.35,5.77.86,9.27,1.55q2.58.51,5.1.92a26.74,26.74,0,0,0,4.27.42l-5,18.33q-2.27-1.75-9.22-2.88a74.43,74.43,0,0,0-11.69-1.14,6.76,6.76,0,0,0-1.91.21c-.44.14-.67.51-.67,1.13s.4.93,1.19,1.34a17.42,17.42,0,0,0,3.86,1.24c2.27.48,3.33.72,3.19.72a13,13,0,0,1,1.86.41,34.93,34.93,0,0,1,12.51,5.2q5.1,3.56,5.1,10.46a14,14,0,0,1-2.52,8.24,16.52,16.52,0,0,1-8,5.66,39.88,39.88,0,0,1-13.9,2.06,80.25,80.25,0,0,1-9.37-.51c-2.89-.35-5.84-.79-8.86-1.34l-4-.57a12.18,12.18,0,0,0-2.78-.15l4-20A15.51,15.51,0,0,0,178.29,42.74Z"/><path class="cls-1" d="M235.35,83.58l-7.11-.66a53.1,53.1,0,0,0-5.76-.52l3.81-21.53.51.31q3.51,1.55,6.34,2.58a17,17,0,0,0,5.82,1,10.88,10.88,0,0,0,4.43-.83,7.14,7.14,0,0,0,2.83-2.11,5.86,5.86,0,0,0,1.18-2.52.36.36,0,0,0,.11-.26v-5l4.63,4.64H235.35q.21-4.64-2.68-14.32l-5-17a106.87,106.87,0,0,0-6.39-17.1h27.3a34.45,34.45,0,0,0-.37,7.11,47.57,47.57,0,0,0,1.09,8.34l3.6,15.86h.41l3.09-15.45A67.24,67.24,0,0,0,257.7,10.3h26.47q-3.19,6.29-7.1,21.32L269.24,61.8c-.14.48-.28,1-.41,1.44a39.14,39.14,0,0,1-4.48,10.46,21.68,21.68,0,0,1-8.09,7.36Q251,83.94,243,83.94,239.27,83.94,235.35,83.58Z"/><path class="cls-1" d="M278.51,61.49a8.93,8.93,0,0,1-3.09-7.11,8.92,8.92,0,0,1,3.09-7.1q3.09-2.69,8.55-2.68t8.55,2.68a8.92,8.92,0,0,1,3.09,7.1,8.93,8.93,0,0,1-3.09,7.11q-3.09,2.68-8.55,2.68T278.51,61.49Z"/><path class="cls-1" d="M1.1,79.81a2.64,2.64,0,0,1-.7-1.92,2.23,2.23,0,0,1,.79-2,3.18,3.18,0,0,1,1.87-.56c.86,0,2.24.08,4.12.22v.5L5.7,76,4.23,76,3,76a1.9,1.9,0,0,0-.8.19,1.58,1.58,0,0,0-.71.63,2,2,0,0,0-.29,1.12,1.86,1.86,0,0,0,.54,1.44,2.14,2.14,0,0,0,1.53.51,2.59,2.59,0,0,0,1.85-.79,6.65,6.65,0,0,0,1.3-1.69A6.83,6.83,0,0,0,7,76h.1l0,1.08H7a8.79,8.79,0,0,1-1,1.77,4.62,4.62,0,0,1-1.36,1.21,3.5,3.5,0,0,1-1.8.46A2.35,2.35,0,0,1,1.1,79.81Zm6.13-.76a9.3,9.3,0,0,0-.06-1.39L7,76.35,7,76a17.4,17.4,0,0,0-.31-2,3.61,3.61,0,0,0-.82-1.57,2.23,2.23,0,0,0-1.77-.71,4.07,4.07,0,0,0-1.4.22,9,9,0,0,0-1.28.57l-.42.2L.83,71.9a4.49,4.49,0,0,0,.57-.23,10.71,10.71,0,0,1,1.35-.49A5.61,5.61,0,0,1,4.27,71a2.7,2.7,0,0,1,2.17,1,5.42,5.42,0,0,1,1.07,2.9l.34,2.79a14.31,14.31,0,0,0,.29,1.66,4.37,4.37,0,0,0,.3.93H7.11A9.72,9.72,0,0,0,7.23,79.05Z"/><path class="cls-1" d="M14.47,79.22a6,6,0,0,0,.11-1.09V71.58a5.93,5.93,0,0,0-.11-1.09,8.37,8.37,0,0,0-.25-1h1.12v10.8H14.22A8.64,8.64,0,0,0,14.47,79.22Zm.67-9.77h1.58a9.31,9.31,0,0,1,3.59.6,4.48,4.48,0,0,1,2.15,1.8,6.61,6.61,0,0,1,0,6,4.37,4.37,0,0,1-2.15,1.8,9.31,9.31,0,0,1-3.59.6H15.14v-.72h1.62A7.4,7.4,0,0,0,19.82,79a4.09,4.09,0,0,0,1.91-1.63,4.94,4.94,0,0,0,.64-2.6,4.76,4.76,0,0,0-.63-2.52,4,4,0,0,0-1.9-1.54,8.16,8.16,0,0,0-3.08-.51H15.14Z"/><path class="cls-1" d="M24.81,71.11a11.45,11.45,0,0,0-.2-1.66h1.33a11.13,11.13,0,0,0-.21,1.66c-.05.75-.08,1.69-.08,2.81v1.87c0,1.11,0,2,.08,2.81a11.15,11.15,0,0,0,.21,1.65H24.61a11.46,11.46,0,0,0,.2-1.65c.06-.76.08-1.7.08-2.81V73.92C24.89,72.8,24.87,71.86,24.81,71.11Z"/><path class="cls-1" d="M35,70.57a8,8,0,0,0-1.45-.46,6.89,6.89,0,0,0-1.59-.19,4.91,4.91,0,0,0-2.15.47,1.68,1.68,0,0,0-1,1.65,1.75,1.75,0,0,0,.5,1.29,3.21,3.21,0,0,0,1.16.73,10.88,10.88,0,0,0,1.49.41l.43.09.47.13a13.79,13.79,0,0,1,1.67.51,2.82,2.82,0,0,1,1.1.79,2,2,0,0,1,.45,1.4,2.8,2.8,0,0,1-1,2.29A4.83,4.83,0,0,1,32,80.5a12.13,12.13,0,0,1-1.7-.11c-.5-.08-1.05-.19-1.63-.32L28,80a2.58,2.58,0,0,0-.48-.06l.23-1,.13.07a8.58,8.58,0,0,0,1.86.53,12.12,12.12,0,0,0,2.49.26,5.36,5.36,0,0,0,1-.09,2.43,2.43,0,0,0,1.56-.86,2.28,2.28,0,0,0,.48-1.39,1.48,1.48,0,0,0-.44-1.09,2.86,2.86,0,0,0-1.07-.63,14.53,14.53,0,0,0-1.62-.45.18.18,0,0,0-.09,0l-.08,0a15.8,15.8,0,0,1-2.1-.62,3.38,3.38,0,0,1-1.34-.92A2.28,2.28,0,0,1,28,72.1a2.43,2.43,0,0,1,1.08-2.19A5.25,5.25,0,0,1,32,69.2a6,6,0,0,1,1.21.12,12.71,12.71,0,0,1,1.38.35l.76.21A2.79,2.79,0,0,0,36,70l-.23,1A2.62,2.62,0,0,0,35,70.57Z"/><path class="cls-1" d="M38.07,78.82a24.43,24.43,0,0,0,.11-2.49V73a20.48,20.48,0,0,0-.11-2.31,5.9,5.9,0,0,0-.25-1.26H39v6.88a24.43,24.43,0,0,0,.11,2.49,8,8,0,0,0,.25,1.43H37.82A8,8,0,0,0,38.07,78.82Zm.49-3h3.15a4.83,4.83,0,0,0,2.66-.61,2.21,2.21,0,0,0,.94-2A2.84,2.84,0,0,0,44.4,71a3.9,3.9,0,0,0-2.69-.82H38.56v-.72h3.22a4.9,4.9,0,0,1,3.2.93A3.21,3.21,0,0,1,46.12,73,3.08,3.08,0,0,1,45,75.62a5.14,5.14,0,0,1-3.2.87H38.56Z"/><path class="cls-1" d="M48,78.74c.06-.67.09-1.48.09-2.41v-3c0-.94,0-1.74-.09-2.42a10.33,10.33,0,0,0-.2-1.51h1.33A11.58,11.58,0,0,0,48.93,71c0,.68-.08,1.48-.08,2.42v6.87h-1A10.13,10.13,0,0,0,48,78.74Zm.54.79h2.73a14.38,14.38,0,0,0,2.3-.15A3.45,3.45,0,0,0,54.83,79l-.29,1.26h-6Z"/><path class="cls-1" d="M57,77.59l2.38-6c.16-.4.29-.79.4-1.17a7.75,7.75,0,0,0,.25-1h1.1a7.39,7.39,0,0,0,.24,1,10.25,10.25,0,0,0,.42,1.21l2.34,5.91a17,17,0,0,0,1.28,2.64H64.21c-.1-.41-.24-.9-.43-1.47s-.4-1.19-.65-1.82l-2.52-6.37h0L58,77c-.25.61-.47,1.2-.66,1.78s-.32,1.07-.42,1.49h-1.2A17.69,17.69,0,0,0,57,77.59Zm.69-1.28h5.74V77H57.71Z"/><path class="cls-1" d="M66.4,71.22q-.44-.7-.81-1.23l-.18-.27a2,2,0,0,0-.18-.27h1.23c.19.4.33.69.43.88s.19.39.28.59.25.49.44.89l2.19,4.55H70l2.14-4.53c.22-.49.44-1,.63-1.38s.33-.75.43-1l0,0h1.13c-.32.51-.64,1-1,1.57s-.58,1-.78,1.44l-2.43,4.91h-.56l-2.45-4.86C66.93,72.12,66.69,71.68,66.4,71.22Zm3,8a6.32,6.32,0,0,0,.11-1.11V76.8h.74v1.29a6.27,6.27,0,0,0,.1,1.11c.08.39.16.74.25,1H69.14A10.2,10.2,0,0,0,69.39,79.2Z"/><path class="cls-1" d="M80.33,71.49h.92l-.12.18v-.11a3.05,3.05,0,0,1,.37-1.63,2,2,0,0,1,1-.86A4.38,4.38,0,0,1,84,68.82a5.21,5.21,0,0,1,1,.1q.53.1.9.21l.21.07L86,70l-.08,0-.07,0a6.93,6.93,0,0,0-.84-.27,3.32,3.32,0,0,0-.9-.13,2.22,2.22,0,0,0-1.75.54,2.48,2.48,0,0,0-.45,1.62l-.2-.21h4.23v.77a34.87,34.87,0,0,0-4-.14H81.7l.15-.15v4.36c0,.79,0,1.46,0,2s.06,1,.1,1.28.07.5.09.6v0H81a.66.66,0,0,0,0-.14c0-.27.08-.71.11-1.33s.06-1.44.06-2.45V72.08l.12,0-.57,0-.69,0-.59,0v-.75Z"/><path class="cls-1" d="M89.32,79.92a4.12,4.12,0,0,1-1.64-1.67,5.51,5.51,0,0,1,0-5,4.12,4.12,0,0,1,1.64-1.67A4.71,4.71,0,0,1,91.67,71a4.78,4.78,0,0,1,2.37.58,4.21,4.21,0,0,1,1.65,1.67,5.59,5.59,0,0,1,0,5A4.21,4.21,0,0,1,94,79.92a4.78,4.78,0,0,1-2.37.58A4.71,4.71,0,0,1,89.32,79.92Zm-1-2.06a3.6,3.6,0,0,0,1.37,1.42,3.77,3.77,0,0,0,1.94.5,3.84,3.84,0,0,0,2-.5A3.56,3.56,0,0,0,95,77.86a4.58,4.58,0,0,0,0-4.2,3.58,3.58,0,0,0-1.38-1.43,3.85,3.85,0,0,0-2-.51,3.77,3.77,0,0,0-1.94.51,3.63,3.63,0,0,0-1.37,1.43,4.74,4.74,0,0,0,0,4.2Z"/><path class="cls-1" d="M98.31,78.6c.06-.76.1-1.7.1-2.81V73.61a7.54,7.54,0,0,0-.11-1.2c-.07-.42-.16-.81-.25-1.16H99q0,.34.06.78c0,.28,0,.56,0,.82q0,1.08.09,1.62v1.32c0,1.11,0,2,.08,2.81a11.8,11.8,0,0,0,.19,1.65H98.06A10.06,10.06,0,0,0,98.31,78.6Zm6.85,0c.06-.78.09-1.75.09-2.9V74.13a2.2,2.2,0,0,0-.74-1.74,2.8,2.8,0,0,0-2-.65,2.76,2.76,0,0,0-2.15.83,4.17,4.17,0,0,0-1,1.81,6.5,6.5,0,0,0-.26,1.68H99V73.57h.2a3.82,3.82,0,0,1,1.18-1.77,3.46,3.46,0,0,1,2.4-.8A3,3,0,0,1,106,74.2v1.46c0,1.12,0,2.07.08,2.85a13.18,13.18,0,0,0,.2,1.74h-1.31A14.29,14.29,0,0,0,105.16,78.56Z"/><path class="cls-1" d="M113.15,72l-1.78,0c-.61,0-1.1,0-1.45,0l.2-.32v6.25a3,3,0,0,0,.28,1.44,1.23,1.23,0,0,0,1.15.48,2.79,2.79,0,0,0,1.38-.33,5.58,5.58,0,0,0,1.06-.75l.07,0,.06-.06.14.83a4.91,4.91,0,0,1-1.35.77,4.66,4.66,0,0,1-1.63.29,1.91,1.91,0,0,1-1.34-.49,2.44,2.44,0,0,1-.54-1.83V71.67l.15.28h-.31l-.5,0-1.07.07v-.75h2l-.23.21.18-1.56h.55c0,.45-.05,1-.05,1.49l-.16-.14h4.3v.77A7.11,7.11,0,0,0,113.15,72Z"/><path class="cls-1" d="M120.27,79c0-.65.08-1.54.08-2.65V73.05c0-1.14,0-2-.08-2.74a7.31,7.31,0,0,0-.21-1.4,2.15,2.15,0,0,0,.6-.13c.2-.08.43-.19.7-.32a12.57,12.57,0,0,0-.21,1.9c-.06.88-.08,2-.08,3.27v2.7c0,1.11,0,2,.08,2.65a4.44,4.44,0,0,0,.21,1.27h-1.3A5.34,5.34,0,0,0,120.27,79Zm.8-1.88a3.1,3.1,0,0,0,.48,1.05,4,4,0,0,0,1.22,1.13,3.54,3.54,0,0,0,2,.5,3.22,3.22,0,0,0,2.81-1.06,4.75,4.75,0,0,0,.83-2.55v-.42c0-.2,0-.35,0-.45a3.9,3.9,0,0,0-.92-2.73,3.27,3.27,0,0,0-2.41-.83,3.57,3.57,0,0,0-2.2.65,4.37,4.37,0,0,0-1.3,1.44,2.9,2.9,0,0,0-.43,1.17h-.26V73.68h.32a4.4,4.4,0,0,1,1.65-2,4.58,4.58,0,0,1,2.54-.69,3.34,3.34,0,0,1,2.78,1.26,5.45,5.45,0,0,1,1,3.49,6.17,6.17,0,0,1-.49,2.61,3.5,3.5,0,0,1-1.43,1.6,4.54,4.54,0,0,1-2.29.54,4.65,4.65,0,0,1-1.91-.37,3.62,3.62,0,0,1-1.43-1.07,3.88,3.88,0,0,1-.78-1.69l.29-.36Z"/><path class="cls-1" d="M130.23,84a6.17,6.17,0,0,1-.94-.22l-.45-.17.29-.86.13,0a4.23,4.23,0,0,0,.88.39,3.52,3.52,0,0,0,1.1.17,1.9,1.9,0,0,0,1.29-.47,3.61,3.61,0,0,0,.89-1.07,13.26,13.26,0,0,0,.7-1.45.77.77,0,0,1,.09-.2l.09-.21.27-.59.41.3h-.84a10.23,10.23,0,0,0-.47-1.35L131.51,74Q131,72.94,130,71.25h1.35c.09.37.21.78.36,1.21a8.68,8.68,0,0,0,.48,1.19l2.54,5.23h.06l2.34-5.18a11,11,0,0,0,.75-2.45H139c-.42.93-.84,1.86-1.27,2.79L135,80.25l-.14.33a19.19,19.19,0,0,1-.92,1.83,4.3,4.3,0,0,1-1.08,1.21,2.61,2.61,0,0,1-1.6.5A6.87,6.87,0,0,1,130.23,84Z"/><path class="cls-1" d="M145.31,77.59l2.38-6c.15-.4.29-.79.4-1.17a7.75,7.75,0,0,0,.25-1h1.1a7.39,7.39,0,0,0,.24,1,10.25,10.25,0,0,0,.42,1.21l2.34,5.91a17,17,0,0,0,1.28,2.64H152.5c-.1-.41-.24-.9-.43-1.47s-.4-1.19-.65-1.82l-2.52-6.37h0L146.32,77c-.25.61-.47,1.2-.65,1.78s-.33,1.07-.43,1.49H144A18.72,18.72,0,0,0,145.31,77.59Zm.69-1.28h5.74V77H146Z"/><path class="cls-1" d="M155.24,80.15a.41.41,0,0,0,0-.1,18.86,18.86,0,0,0,.25-3.72v-3a24.51,24.51,0,0,0-.11-2.61,12.33,12.33,0,0,0-.2-1.3v0h1.07v6.3c0,1.44,0,2.52.1,3.22a12.48,12.48,0,0,0,.18,1.28h-1.35A.33.33,0,0,0,155.24,80.15Zm6.56-9.8a2.39,2.39,0,0,0-.48-.12,4,4,0,0,0-.76-.06H156v-.72h5.83v.9ZM156,74.58h4a8.36,8.36,0,0,0,1.4-.18v1.08a8.36,8.36,0,0,0-1.4-.18h-4Z"/><path class="cls-1" d="M170.34,70.57a7.51,7.51,0,0,0-1.45-.46,6.87,6.87,0,0,0-1.58-.19,4.88,4.88,0,0,0-2.15.47,1.68,1.68,0,0,0-1,1.65,1.71,1.71,0,0,0,.5,1.29,3.26,3.26,0,0,0,1.15.73,10.65,10.65,0,0,0,1.5.41l.43.09.47.13a13.79,13.79,0,0,1,1.67.51A2.9,2.9,0,0,1,171,76a2,2,0,0,1,.45,1.4,2.78,2.78,0,0,1-1,2.29,4.8,4.8,0,0,1-3.06.82,12.34,12.34,0,0,1-1.7-.11c-.5-.08-1-.19-1.63-.32l-.62-.12a2.58,2.58,0,0,0-.48-.06l.24-1,.12.07a8.89,8.89,0,0,0,1.87.53,12,12,0,0,0,2.49.26,5.36,5.36,0,0,0,1-.09,2.43,2.43,0,0,0,1.56-.86,2.33,2.33,0,0,0,.47-1.39,1.44,1.44,0,0,0-.44-1.09,2.79,2.79,0,0,0-1.07-.63,14.53,14.53,0,0,0-1.62-.45.13.13,0,0,0-.08,0l-.08,0a16,16,0,0,1-2.11-.62,3.45,3.45,0,0,1-1.34-.92,2.33,2.33,0,0,1-.53-1.59,2.42,2.42,0,0,1,1.09-2.19,5.21,5.21,0,0,1,2.87-.71,6.08,6.08,0,0,1,1.22.12,12,12,0,0,1,1.37.35l.77.21a2.71,2.71,0,0,0,.62.09l-.23,1A2.58,2.58,0,0,0,170.34,70.57Z"/><path class="cls-1" d="M178.15,72l-1.78,0c-.62,0-1.1,0-1.45,0l.2-.32v6.25a2.86,2.86,0,0,0,.28,1.44,1.22,1.22,0,0,0,1.14.48,2.83,2.83,0,0,0,1.39-.33,5.58,5.58,0,0,0,1.06-.75l.06,0,.07-.06.14.83a4.91,4.91,0,0,1-1.35.77,4.68,4.68,0,0,1-1.64.29,1.9,1.9,0,0,1-1.33-.49,2.44,2.44,0,0,1-.54-1.83V71.67l.15.28h-.31l-.5,0-1.07.07v-.75h2l-.24.21.18-1.56h.56c0,.45-.05,1-.05,1.49l-.16-.14h4.3v.77A7.11,7.11,0,0,0,178.15,72Z"/><path class="cls-1" d="M181.84,72.81c-.05.71-.08,1.58-.08,2.6v1.35a3.78,3.78,0,0,0,.38,1.83,2.13,2.13,0,0,0,1,1,4,4,0,0,0,1.61.28,3,3,0,0,0,2-.6,2.74,2.74,0,0,0,.89-1.43,7.05,7.05,0,0,0,.2-1.77v-.59c0-1,0-1.89-.05-2.6s-.08-1.24-.13-1.58h1.14a15.2,15.2,0,0,0-.17,1.56c0,.71-.07,1.58-.07,2.6v.92c0,.93,0,1.74.07,2.41a12.49,12.49,0,0,0,.18,1.51H188a10.8,10.8,0,0,0,.09-2H188a4.43,4.43,0,0,1-.52,1.07,2.51,2.51,0,0,1-1,.83,4.63,4.63,0,0,1-2,.35,3.59,3.59,0,0,1-2.53-.86,3.4,3.4,0,0,1-.93-2.63V75.41c0-1,0-1.89-.07-2.6s-.1-1.23-.16-1.56H182A13.28,13.28,0,0,0,181.84,72.81Z"/><path class="cls-1" d="M198.41,78.43A4.59,4.59,0,0,1,197,79.89a3.55,3.55,0,0,1-2.06.61,4.14,4.14,0,0,1-3.18-1.18,4.88,4.88,0,0,1-1.11-3.48,5.76,5.76,0,0,1,.54-2.57A3.91,3.91,0,0,1,194.87,71a4.14,4.14,0,0,1,1.73.35,3.6,3.6,0,0,1,1.28,1,4,4,0,0,1,.75,1.38h.31V75h-.24a3.08,3.08,0,0,0-.39-1.21,4.11,4.11,0,0,0-1.26-1.43,3.48,3.48,0,0,0-2.16-.64,3.32,3.32,0,0,0-2.48,1,4.33,4.33,0,0,0-1,3.11,4.15,4.15,0,0,0,.94,3,3.37,3.37,0,0,0,2.5.94,3.62,3.62,0,0,0,2-.55A4.26,4.26,0,0,0,198.18,78a3.3,3.3,0,0,0,.5-1.2s0-.06,0-.11l.27.25A3.47,3.47,0,0,1,198.41,78.43Zm.21.55c0-.65.08-1.54.08-2.65V73.05c0-1.14,0-2-.08-2.74a6,6,0,0,0-.21-1.4,2.15,2.15,0,0,0,.61-.13l.69-.32a15.94,15.94,0,0,0-.21,1.9c-.05.88-.08,2-.08,3.27v2.7c0,1.11,0,2,.08,2.65a5.34,5.34,0,0,0,.21,1.27h-1.3A4.44,4.44,0,0,0,198.62,79Z"/><path class="cls-1" d="M201.58,70.36a.7.7,0,0,1-.29-.57.72.72,0,0,1,.29-.57,1.16,1.16,0,0,1,.77-.24,1.15,1.15,0,0,1,.77.24.7.7,0,0,1,.28.57.69.69,0,0,1-.28.57,1.2,1.2,0,0,1-.77.23A1.22,1.22,0,0,1,201.58,70.36Zm.24,9.89A7.8,7.8,0,0,0,202,78.9c0-.66.07-1.52.07-2.57v-.92c0-1.14,0-2.06-.07-2.75a8.15,8.15,0,0,0-.18-1.41H203a8.15,8.15,0,0,0-.18,1.41c-.05.69-.07,1.61-.07,2.75v.92c0,1,0,1.91.07,2.57a7.8,7.8,0,0,0,.18,1.35Z"/><path class="cls-1" d="M207.34,79.92a4.25,4.25,0,0,1-1.64-1.67,5.59,5.59,0,0,1,0-5,4.25,4.25,0,0,1,1.64-1.67A4.74,4.74,0,0,1,209.7,71a4.81,4.81,0,0,1,2.37.58,4.12,4.12,0,0,1,1.64,1.67,5.51,5.51,0,0,1,0,5,4.12,4.12,0,0,1-1.64,1.67,4.81,4.81,0,0,1-2.37.58A4.74,4.74,0,0,1,207.34,79.92Zm-1-2.06a3.6,3.6,0,0,0,1.37,1.42,3.73,3.73,0,0,0,1.93.5,3.81,3.81,0,0,0,2-.5A3.65,3.65,0,0,0,213,77.86a4.66,4.66,0,0,0,0-4.2,3.68,3.68,0,0,0-1.39-1.43,3.82,3.82,0,0,0-2-.51,3.74,3.74,0,0,0-1.93.51,3.63,3.63,0,0,0-1.37,1.43,4.66,4.66,0,0,0,0,4.2Z"/></g></g></svg>